<svg xmlns="http://www.w3.org/2000/svg" xmlns:xlink="http://www.w3.org/1999/xlink" width="1920" height="911" viewBox="0 0 1920 911">
  <defs>
    <style>
      .cls-1, .cls-2 {
        fill: none;
        fill-rule: evenodd;
      }

      .cls-1 {
        stroke-linecap: round;
        stroke-linejoin: round;
        stroke-width: 35.84px;
        stroke: url(#linear-gradient);
      }

      .cls-2 {
        stroke-width: 4.43px;
        stroke: url(#linear-gradient-2);
      }
    </style>
    <linearGradient id="linear-gradient" x1="997" y1="842.938" x2="997" y2="-60" gradientUnits="userSpaceOnUse">
      <stop offset="0" stop-color="#0bbafb"/>
      <stop offset="1" stop-color="#4285ec"/>
    </linearGradient>
    <linearGradient id="linear-gradient-2" x1="997" y1="842.938" x2="997" y2="-60" gradientUnits="userSpaceOnUse">
      <stop offset="0" stop-color="#fff"/>
      <stop offset="1" stop-color="#fff"/>
    </linearGradient>
  </defs>
  <path class="cls-1" d="M-11,89S311.375,225.523,391,446,791.375,743.665,941,822s530.87-79.2,597-207,166.37-397.816,301-311,166-6,166-6-99.13-178.557-234-179-44.13,86.515-226,76-263.63-35.2-288-121-18-134-18-134"/>
  <path id="Shape_2_copy" data-name="Shape 2 copy" class="cls-2" d="M-11,89S311.375,225.523,391,446,791.375,743.665,941,822s530.87-79.2,597-207,166.37-397.816,301-311,166-6,166-6-99.13-178.557-234-179-44.13,86.515-226,76-263.63-35.2-288-121-18-134-18-134"/>
</svg>
