<svg xmlns="http://www.w3.org/2000/svg" xmlns:xlink="http://www.w3.org/1999/xlink" width="1920" height="625" viewBox="0 0 1920 625">
  <defs>
    <style>
      .cls-1, .cls-2 {
        fill: none;
        stroke-linecap: round;
        stroke-linejoin: round;
        fill-rule: evenodd;
      }

      .cls-1 {
        stroke-width: 35.84px;
        stroke: url(#linear-gradient);
      }

      .cls-2 {
        stroke-width: 4.34px;
        stroke: url(#linear-gradient-2);
      }
    </style>
    <linearGradient id="linear-gradient" x1="977" y1="716.469" x2="977" y2="-203" gradientUnits="userSpaceOnUse">
      <stop offset="0" stop-color="#0bbafb"/>
      <stop offset="1" stop-color="#4285ec"/>
    </linearGradient>
    <linearGradient id="linear-gradient-2" x1="977" y1="716.469" x2="977" y2="-203" gradientUnits="userSpaceOnUse">
      <stop offset="0" stop-color="#ecdfdf"/>
      <stop offset="1" stop-color="#ecdfdf"/>
    </linearGradient>
  </defs>
  <path class="cls-1" d="M-51,226s440.925-83.047,646-7c90.243,33.464,13.668,209.627,38,277,79.625,220.477,158.676,104.092,308,183,147.99,78.2,424.58-77.428,352-225-63.5-129.121,18.37-340.816,153-254s559-45,559-45S1905.87-23.557,1771-24s-44.13,86.515-226,76S1281.37,16.8,1257-69s-18-134-18-134"/>
  <path id="Shape_2_copy_2" data-name="Shape 2 copy 2" class="cls-2" d="M-51,226s440.925-83.047,646-7c90.243,33.464,13.668,209.627,38,277,79.625,220.477,158.676,104.092,308,183,147.99,78.2,424.58-77.428,352-225-63.5-129.121,18.37-340.816,153-254s559-45,559-45S1905.87-23.557,1771-24s-44.13,86.515-226,76S1281.37,16.8,1257-69s-18-134-18-134"/>
</svg>
